<?xml version="1.0" encoding="utf-8"?>
<!-- Generator: Adobe Illustrator 18.1.0, SVG Export Plug-In . SVG Version: 6.00 Build 0)  -->
<svg version="1.1" id="Layer_1" xmlns="http://www.w3.org/2000/svg" xmlns:xlink="http://www.w3.org/1999/xlink" x="0px" y="0px"
	 viewBox="0 0 500 500" style="enable-background:new 0 0 500 500;" xml:space="preserve">
<g>
	<g>
		<circle style="fill:#19ABB5;" cx="250.7" cy="54.6" r="54.6"/>
		<path style="fill:#00939B;" d="M250.5,2.3v104.6c28.7-0.6,52.3-23.7,52.3-52.3S279.2,2.9,250.5,2.3z"/>
		<g>
			<g>
				<defs>
					<circle id="SVGID_1_" cx="250.7" cy="54.6" r="52.3"/>
				</defs>
				<clipPath id="SVGID_2_">
					<use xlink:href="#SVGID_1_"  style="overflow:visible;"/>
				</clipPath>
				<g style="clip-path:url(#SVGID_2_);">
					<polygon style="fill:#FFD400;" points="250.7,74.8 237.6,66.4 223,38.9 241.5,28.5 262,28.5 277.9,38.9 264.8,66.4 					"/>
					<polygon style="fill:#FFDD50;" points="262,28.5 251,28.5 251,73.9 264.7,66.4 277.8,38.9 					"/>
					<path style="fill:#7A69A2;" d="M259.4,40.3l-3.4-1c-3.6-1.1-7.4-1.1-11.1,0l-3.4,1l-1-30.9l1-30.1h17.9l1.6,31.9L259.4,40.3z"
						/>
					<path style="fill:#5C4C85;" d="M241.5,40.3l-4.9-1.4c-2.9-0.8-5.9-1-8.8-0.5l-4.8,0.9v-60h18.5V40.3z"/>
					<path style="fill:#735999;" d="M277.9,39.2l-4.8-0.9c-2.9-0.5-5.9-0.4-8.8,0.5l-4.9,1.4v-61h18.5V39.2z"/>
					<path style="fill:#808285;" d="M249.9,89.8l-12.4-23.4h27.2l-11,23.3C253,91.3,250.8,91.4,249.9,89.8z"/>
				</g>
			</g>
		</g>
	</g>
	<g>
		<circle style="fill:#7A69A2;" cx="390.5" cy="114.6" r="54.6"/>
		<path style="fill:#735999;" d="M390.5,62.3v104.6c28.4-0.6,52.3-23.7,52.3-52.3S418.9,62.9,390.5,62.3z"/>
		<path style="fill:#7AC4D3;" d="M399.6,103.3V84.6h0.9c1,0,1.8-0.8,1.8-1.8v-2.9c0-1-0.8-1.8-1.8-1.8h-19.1c-1,0-1.8,0.8-1.8,1.8
			v2.9c0,1,0.8,1.8,1.8,1.8h0.9v18.7c-11.1,3.7-18.9,14.5-18.3,26.9c0.7,13.8,12,25,25.8,25.5c15.4,0.6,28-11.7,28-26.9
			C417.9,117,410.3,106.9,399.6,103.3z"/>
		<path style="fill:#19ABB5;" d="M367,123.3c-0.5,2.1-0.8,3.9-0.8,6.2c0,13.7,11.1,24.7,24.8,24.7c13.7,0,24.8-11,24.8-24.7
			c0-2.2-0.3-4.1-0.8-6.2C415,123.3,367,123.3,367,123.3z"/>
		<path style="fill:#7FCCD6;" d="M390.5,78.2h-9c-1,0-1.7,0.8-1.7,1.7v2.9c0,1,0.8,2,1.7,2h0.8v18.4c-10.8,3.7-18.9,14.5-18.3,26.9
			c0.7,13.8,12,25,25.8,25.5c0.2,0,0.6,0,0.6,0L390.5,78.2L390.5,78.2z"/>
		<path style="fill:#00939B;" d="M390.5,123.3H367c-0.5,2.1-0.8,3.9-0.8,6.2c0,13.5,10.9,24.4,24.3,24.7V123.3z"/>
		<circle style="fill:#7FCCD6;" cx="403" cy="110.5" r="3.2"/>
		<circle style="fill:#7FCCD6;" cx="407.3" cy="113.6" r="2.5"/>
	</g>
	<g>
		<g>
			<circle style="fill:#A7C539;" cx="111.5" cy="114.1" r="54.6"/>
			<path style="fill:#85A640;" d="M111.5,61.8v104.6c28.4-0.6,52.3-23.7,52.3-52.3S139.9,62.4,111.5,61.8z"/>
		</g>
		<g>
			<path style="fill:#F5833C;" d="M106.5,89.9c-3.6-0.1-7.1,0.5-10.4,1.5c-2.1,0.7-1.6,3.6,0.5,3.7c0.1,0,0.2,0,0.3,0
				c16.8,1,30.2,14.8,30.6,31.5c0.1,3.9-0.5,7.7-1.7,11.2c-1.3,4,3.9,6.8,6.4,3.3c3.8-5.4,6.1-11.9,6.1-19.1
				C138.2,104.7,123.9,90.3,106.5,89.9z"/>
			<polygon style="fill:#F5833C;" points="108.7,112.7 91.9,111.8 92.2,77.9 112.2,79 			"/>
			<polygon style="fill:#D56230;" points="111.6,83.7 92.2,82.7 92.2,79.5 111.9,80.6 			"/>
			<polygon style="fill:#D56230;" points="108.8,111.1 91.9,110.2 92,107 109.2,107.9 			"/>
			<circle style="fill:#D56230;" cx="104.8" cy="93.5" r="1.7"/>
			<circle style="fill:none;stroke:#D56230;stroke-width:1.5545;stroke-miterlimit:10;" cx="104.8" cy="93.5" r="2.5"/>
			<polygon style="fill:#D56230;" points="141.3,144.4 89,144.4 89,135.4 141.3,139.8 			"/>
			<polygon style="fill:#D56230;" points="132.2,129 89,126.3 89,121.8 132.2,124.6 131,125.4 131,127.7 			"/>
			<circle style="fill:#D56230;" cx="133.1" cy="127" r="1.7"/>
			<circle style="fill:none;stroke:#D56230;stroke-width:1.5545;stroke-miterlimit:10;" cx="133.1" cy="127" r="2.5"/>
		</g>
	</g>
	<g>
		<g>
			<circle style="fill:#F37032;" cx="55.1" cy="250.9" r="54.6"/>
			<path style="fill:#D56230;" d="M55.1,198.6v104.6c28.4-0.6,52.3-23.7,52.3-52.3S83.5,199.1,55.1,198.6z"/>
		</g>
		<g>
			<g>
				<circle style="fill:#00939B;" cx="55.4" cy="260.1" r="32.1"/>
				<path style="fill:#19ABB5;" d="M55.3,228c-0.1,0-0.2,0-0.2,0v64.2c0,0,0.2,0,0.2,0c17.7,0,32.1-14.4,32.1-32.1
					C87.4,242.4,73.1,228,55.3,228z"/>
				<path style="fill:#A7C539;" d="M40.6,237.8c0,0-15.5,5.5-14.3,13.4c1.3,7.8,1.5,5.3,11.7,9c10.3,3.7,10.3,3.6,10.3,7.7
					c0,3.6,4.6,0,4.6,0s-3.4,3.6-4.6,9.7c-1.1,6.1,4,11.8,8.4,13.1c8.8,2.5,17.6-4.8,17.6-4.8s-3.5-3.9-8.1-8.5
					c-4.6-4.6-4.7-10.7-4.7-10.7l-6.6-3.6c0,0,0-2.1,0-5.9s7.9-9.1,7.9-14.1s-1.1-16.7-5.5-12.5C50.2,237.8,40.6,237.8,40.6,237.8z"
					/>
				<path style="fill:#A7C539;" d="M78.4,237.6c0,0-4.3,5.1-3.9,9.5c0.3,4.4,0.7,8,3.9,7.8c3.2-0.2,5.7-2.9,5.7-2.9s2.6,0.7,2.4-0.2
					C85.8,248.5,82.7,241.2,78.4,237.6z"/>
				<path style="fill:#A7C539;" d="M87.1,255c0,0-6.6,4.1-8.2,5.3c-3.3,2.4-0.9,9.3-0.9,9.3l3.8,5c0,0,1.3,0.4,2.1,0.2
					C87.3,268.3,88.4,260.5,87.1,255z"/>
			</g>
			<g>
				<circle style="fill:#D1D3D4;" cx="55.2" cy="213.1" r="6.6"/>
				<path style="fill:#A7A9AC;" d="M50.5,213.1c0-3.3,2.5-6.1,5.6-6.5c-0.3-0.1-0.6-0.1-1-0.1c-3.6,0-6.6,3-6.6,6.6s3,6.6,6.6,6.6
					c0.3,0,0.7-0.1,1-0.1C53,219.2,50.5,216.5,50.5,213.1z"/>
			</g>
		</g>
	</g>
	<g>
		<g>
			<circle style="fill:#7A69A2;" cx="111" cy="387.9" r="54.6"/>
			<path style="fill:#735999;" d="M111,335.6v104.6c28.4-0.6,52.3-23.7,52.3-52.3S139.4,336.2,111,335.6z"/>
		</g>
		<g>
			<rect x="74.6" y="387.9" style="fill:#F5833C;" width="28.7" height="28.7"/>
			<polygon style="fill:#D56230;" points="109.5,404.7 103.3,416.5 103.3,387.8 109.5,381.1 			"/>
			<polygon style="fill:#F37032;" points="103.3,387.9 74.6,387.9 88.1,381.3 109.2,381.3 			"/>
			<text transform="matrix(1 0 0 1 78.308 412.6892)" style="fill:#FFD400; font-family:'Bariol-Bold'; font-size:33.245;">A</text>
			<rect x="119.2" y="387.9" style="fill:#CAD12C;" width="28.7" height="28.7"/>
			<polygon style="fill:#85A640;" points="119.2,416.5 109.5,404.7 109.5,381.1 119.2,387.8 			"/>
			<polygon style="fill:#A7C539;" points="147.9,387.9 119.3,387.9 109.2,381.3 128.6,381.3 			"/>
			<text transform="matrix(1 0 0 1 123.826 412.6892)" style="fill:#7A69A2; font-family:'Bariol-Bold'; font-size:33.245;">B</text>
			<rect x="96.7" y="357.7" style="fill:#F599B8;" width="28.7" height="28.7"/>
			<polygon style="fill:#ED2A80;" points="125.9,381.1 125.4,386.2 125.4,357.5 125.9,354.2 			"/>
			<polygon style="fill:#BF2070;" points="125.2,357.7 96.5,357.7 101.6,354.1 126.1,354.1 			"/>
			<text transform="matrix(1 0 0 1 99.8035 382.8064)" style="fill:#85A640; font-family:'Bariol-Bold'; font-size:33.245;">C</text>
		</g>
	</g>
	<g>
		<g>
			<circle style="fill:#19ABB5;" cx="250.7" cy="445.4" r="54.6"/>
			<path style="fill:#00939B;" d="M250.5,393.1v104.6c28.7-0.6,52.3-23.7,52.3-52.3C302.8,416.8,279.2,393.6,250.5,393.1z"/>
		</g>
		<g>
			<g>
				<path style="fill:#85A640;" d="M248.1,409.4c5.3,5.3,6.8,12.4,6.8,12.4s-7.1-1.5-12.4-6.8s-6.8-12.4-6.8-12.4
					S242.8,404.1,248.1,409.4z"/>
				<path style="fill:#A7C539;" d="M235.7,402.9c0.4,1.3,2.1,7.4,6.7,12.1s10.7,6.4,12.1,6.7L235.7,402.9z"/>
				<g>
					<path style="fill:#85A640;" d="M254.1,415.1c2.3-2.3,5.2-3.8,8.3-4.4c1-0.2,2,0.5,2.2,1.5s-0.5,2-1.5,2.2
						c-2.4,0.5-4.6,1.6-6.4,3.4c-1.9,1.9-3.1,4.4-3.5,7.1c-0.2,1-1.1,1.7-2.1,1.6c-1-0.2-1.7-1.1-1.6-2.1
						C249.9,420.8,251.5,417.6,254.1,415.1z"/>
				</g>
				<path style="fill:#BC2020;" d="M278.9,457.3c0.8-2.5,1.3-5.1,1.4-7.9c2.2-19.6-9.9-37.1-29.8-30.9l0,0
					c-16.4,0.1-19.9,6.5-19.9,22.8c0,14.8,4.4,24.9,20.1,36.5c12,0,22.4-7.1,27-17.4C278.2,459.8,278.6,458.8,278.9,457.3z"/>
				<path style="fill:#EA2A2A;" d="M250.7,418.7L250.7,418.7c0-0.5,0-0.1,0-0.1c-20.5-6.4-32.6,12.3-29.5,32.5l0,0
					c0.2,1.6,0.4,3.2,0.8,4.7c0.5,2.5,1,4.1,1.6,5c4.7,10.2,14.6,17.1,26.9,17.1v-59.2H250.7z"/>
			</g>
			<path style="fill:#EA4747;" d="M240.6,420.8c-2.4-0.8-5,0.5-5.8,2.9c-0.2,0.6-0.3,1.1-0.2,1.6c-1.2,0.1-2.2,0.9-2.6,2.1
				c-0.5,1.6,0.4,3.3,1.9,3.8c1.5,0.5,3.1-0.3,3.7-1.7c0.1,0,0.1,0.1,0.2,0.1c2.4,0.8,5-0.5,5.8-2.9
				C244.3,424.2,243,421.6,240.6,420.8z"/>
		</g>
	</g>
	<g>
		<g>
			<circle style="fill:#A7C539;" cx="389.5" cy="387.4" r="54.6"/>
			<path style="fill:#85A640;" d="M389.5,335.1v104.6c28.4-0.6,52.3-23.7,52.3-52.3C441.8,358.8,417.9,335.7,389.5,335.1z"/>
		</g>
		<g>
			
				<rect x="358.7" y="364.4" style="fill:#333333;stroke:#D56230;stroke-width:10;stroke-linecap:round;stroke-linejoin:round;stroke-miterlimit:10;" width="62.1" height="46.7"/>
			<g>
				
					<line style="fill:none;stroke:#D1D3D4;stroke-width:8;stroke-linecap:round;stroke-linejoin:round;stroke-miterlimit:10;" x1="377.2" y1="373.1" x2="377.2" y2="382.8"/>
				
					<line style="fill:none;stroke:#D1D3D4;stroke-width:8;stroke-linecap:round;stroke-linejoin:round;stroke-miterlimit:10;" x1="372.1" y1="377.7" x2="381.3" y2="377.7"/>
			</g>
			
				<line style="fill:none;stroke:#D1D3D4;stroke-width:8;stroke-linecap:round;stroke-linejoin:round;stroke-miterlimit:10;" x1="397.7" y1="399.7" x2="407.4" y2="399.7"/>
			<g>
				
					<line style="fill:none;stroke:#D1D3D4;stroke-width:8;stroke-linecap:round;stroke-linejoin:round;stroke-miterlimit:10;" x1="398.2" y1="380.8" x2="407.4" y2="380.8"/>
				<circle style="fill:#D1D3D4;" cx="402.8" cy="374.3" r="2.3"/>
				<circle style="fill:#D1D3D4;" cx="402.8" cy="385.5" r="2.3"/>
			</g>
			<g>
				
					<line style="fill:none;stroke:#D1D3D4;stroke-width:8.1752;stroke-linecap:round;stroke-linejoin:round;stroke-miterlimit:10;" x1="371.7" y1="401.5" x2="381.6" y2="391.6"/>
				<path style="fill:#D1D3D4;" d="M370.7,392.6c-0.9-2.2,1.2-4.2,3.3-3.1c0.4,0.2,0.6,0.5,0.8,0.8c1.1,2.2-0.9,4.3-3.1,3.3
					C371.3,393.5,370.9,393.1,370.7,392.6z"/>
				<path style="fill:#D1D3D4;" d="M378.2,402.6c-0.9-2.2,1.2-4.2,3.3-3.1c0.4,0.2,0.6,0.5,0.8,0.8c1.1,2.2-0.9,4.3-3.1,3.3
					C378.8,403.4,378.4,403,378.2,402.6z"/>
			</g>
		</g>
	</g>
	<g>
		<g>
			<circle style="fill:#F37032;" cx="444.9" cy="250.9" r="54.6"/>
			<path style="fill:#D56230;" d="M444.9,198.6v104.6c28.4-0.6,52.3-23.7,52.3-52.3S473.3,199.1,444.9,198.6z"/>
		</g>
		<g>
			<g>
				<defs>
					<circle id="SVGID_3_" cx="445.9" cy="250.7" r="36.3"/>
				</defs>
				<clipPath id="SVGID_4_">
					<use xlink:href="#SVGID_3_"  style="overflow:visible;"/>
				</clipPath>
				<g style="clip-path:url(#SVGID_4_);">
					<circle style="fill:#5C4C85;" cx="445.9" cy="250.7" r="36.3"/>
				</g>
			</g>
			<g>
				<defs>
					<circle id="SVGID_5_" cx="445.9" cy="250.7" r="36.3"/>
				</defs>
				<clipPath id="SVGID_6_">
					<use xlink:href="#SVGID_5_"  style="overflow:visible;"/>
				</clipPath>
				<g style="clip-path:url(#SVGID_6_);">
					<path style="fill:#7A69A2;" d="M445.9,214.4c0,0-0.1,0-0.1,0c-20.1,0-36.2,16.3-36.2,36.3s16.2,36.3,36.2,36.3
						c0.1,0,0.1,0,0.1,0V214.4z"/>
				</g>
			</g>
			<g>
				<defs>
					<circle id="SVGID_7_" cx="445.9" cy="250.7" r="36.3"/>
				</defs>
				<clipPath id="SVGID_8_">
					<use xlink:href="#SVGID_7_"  style="overflow:visible;"/>
				</clipPath>
				<g style="clip-path:url(#SVGID_8_);">
					<path style="fill:#FFFFFF;" d="M445.9,245.8c-20.5,0-37.2-16.7-37.2-37.2s16.7-37.2,37.2-37.2c20.5,0,37.2,16.7,37.2,37.2
						S466.4,245.8,445.9,245.8z M445.9,173.3c-19.5,0-35.4,15.8-35.4,35.4s15.8,35.4,35.4,35.4s35.4-15.8,35.4-35.4
						S465.4,173.3,445.9,173.3z"/>
				</g>
			</g>
			<g>
				<defs>
					<circle id="SVGID_9_" cx="445.9" cy="250.7" r="36.3"/>
				</defs>
				<clipPath id="SVGID_10_">
					<use xlink:href="#SVGID_9_"  style="overflow:visible;"/>
				</clipPath>
				<g style="clip-path:url(#SVGID_10_);">
					<path style="fill:#FFFFFF;" d="M446.4,331.2c-20.5,0-37.2-16.7-37.2-37.2s16.7-37.2,37.2-37.2c20.5,0,37.2,16.7,37.2,37.2
						S466.9,331.2,446.4,331.2z M446.4,258.6c-19.5,0-35.4,15.8-35.4,35.4s15.8,35.4,35.4,35.4c19.5,0,35.4-15.8,35.4-35.4
						S465.8,258.6,446.4,258.6z"/>
				</g>
			</g>
			<g>
				<defs>
					<circle id="SVGID_11_" cx="445.9" cy="250.7" r="36.3"/>
				</defs>
				<clipPath id="SVGID_12_">
					<use xlink:href="#SVGID_11_"  style="overflow:visible;"/>
				</clipPath>
				<g style="clip-path:url(#SVGID_12_);">
					<rect x="406.4" y="250.5" style="fill:#FFFFFF;" width="77.9" height="2.1"/>
				</g>
			</g>
			<g>
				<defs>
					<circle id="SVGID_13_" cx="445.9" cy="250.7" r="36.3"/>
				</defs>
				<clipPath id="SVGID_14_">
					<use xlink:href="#SVGID_13_"  style="overflow:visible;"/>
				</clipPath>
				<g style="clip-path:url(#SVGID_14_);">
					<rect x="444.4" y="212.6" style="fill:#FFFFFF;" width="2.1" height="77.4"/>
				</g>
			</g>
		</g>
	</g>
</g>
</svg>
