<?xml version="1.0" encoding="utf-8"?>
<!-- Generator: Adobe Illustrator 18.1.0, SVG Export Plug-In . SVG Version: 6.00 Build 0)  -->
<svg version="1.1" id="Layer_1" xmlns="http://www.w3.org/2000/svg" xmlns:xlink="http://www.w3.org/1999/xlink" x="0px" y="0px"
	 viewBox="0 0 973 975" style="enable-background:new 0 0 973 975;" xml:space="preserve">
<g>
	<circle style="fill:#F4D6A6;" cx="489.1" cy="508.8" r="117.3"/>
	<g>
		<circle style="fill:#F4D6A6;" cx="604.6" cy="535.8" r="16.5"/>
		<circle style="fill:#EDD0A6;" cx="373.6" cy="535.8" r="16.5"/>
	</g>
	<path style="fill:#EDD0A6;" d="M488.5,391.5c-64,0.2-117,52.6-117,117.3s53,117.1,117,117.3V391.5z"/>
	<circle style="fill:#44372A;" cx="437.8" cy="532.8" r="10.3"/>
	<circle style="fill:#44372A;" cx="540.4" cy="532.8" r="10.3"/>
	<g>
		<path style="fill:#F37032;" d="M488.2,574.8c-8.9,0-17.4-2.6-24.7-7.5c-2.4-1.6-3-4.8-1.4-7.2c1.6-2.4,4.8-3,7.2-1.4
			c5.6,3.8,12.1,5.8,18.9,5.8c7.5,0,14.6-2.4,20.6-7c2.3-1.7,5.5-1.3,7.3,1c1.7,2.3,1.3,5.5-1,7.3
			C507.3,571.6,498,574.8,488.2,574.8z"/>
	</g>
	<path style="fill:none;stroke:#7C5C39;stroke-width:5;stroke-linecap:round;stroke-miterlimit:10;" d="M427.3,512.5
		c3.1-2.4,7-3.8,11.3-3.8c3.8,0,7.4,1.2,10.4,3.2"/>
	<path style="fill:none;stroke:#7C5C39;stroke-width:5;stroke-linecap:round;stroke-miterlimit:10;" d="M529.6,512.5
		c3.1-2.4,7-3.8,11.3-3.8c3.8,0,7.4,1.2,10.4,3.2"/>
	<path style="fill:#7C5C39;" d="M518,352.3c-48.5,0-88,19.2-124.5,55.7c-28.6,28.6-46.6,28.1-60.5,14.2c0,37.1,14.1,60.8,36,70.1
		l1.5,27.2h3.4c12.5,0,22.6-10.1,22.6-22.6v-0.2c64.5-2.6,76.4-50.2,133.5-50.2c55.8,0,42.8,35.7,49.5,57c5.9,19,27,16,27,16l3-87.3
		C609.5,396.5,585,352.3,518,352.3z"/>
	<g>
		<path style="fill:#8C6946;" d="M394.5,422c36.5-36.5,76-55.7,124.5-55.7c53.9,0,80.3,28.6,88.5,58.4
			c-6.9-31.1-33.2-62.4-89.5-62.4c-48.5,0-88,19.2-124.5,55.7c-28.6,28.6-46.6,28.1-60.5,14.2C333,432.3,343.9,472.6,394.5,422z"/>
	</g>
	<path style="fill:#F5833C;" d="M516,558.4c-1.7-2.3-5.1-2.7-7.4-1c-5.8,4.4-12.1,6.8-20.1,6.9v10.4c10-0.1,18.8-3.3,26.4-9.1
		C517.2,563.9,517.7,560.7,516,558.4z"/>
</g>
</svg>
