<?xml version="1.0" encoding="utf-8"?>
<!-- Generator: Adobe Illustrator 18.1.0, SVG Export Plug-In . SVG Version: 6.00 Build 0)  -->
<svg version="1.1" id="Layer_1" xmlns="http://www.w3.org/2000/svg" xmlns:xlink="http://www.w3.org/1999/xlink" x="0px" y="0px"
	 viewBox="0 204.8 500 160.5" style="enable-background:new 0 204.8 500 160.5;" xml:space="preserve">
<path style="fill:#9AC7CA;" d="M500,246v119.2H0v-86.9c17.5-16.6,41.1-26.7,67.1-26.7c7.2,0,14.3,0.8,21.1,2.3
	c15-26.2,41.8-44.7,73.1-48.4c3.8-0.4,7.7-0.7,11.7-0.7s7.8,0.2,11.7,0.7c29.3,3.5,54.6,19.9,70,43.5c3.1-0.3,6.2-0.4,9.3-0.4
	c8.8,0,17.3,1.1,25.4,3.3c12.5-13.1,30.1-21.3,49.6-21.3c25.2,0,47.1,13.6,59,33.8c19.7-14.2,43.9-22.6,70.1-22.6
	C479.1,241.7,489.8,243.2,500,246z"/>
</svg>
