<?xml version="1.0" encoding="utf-8"?>
<!-- Generator: Adobe Illustrator 18.1.0, SVG Export Plug-In . SVG Version: 6.00 Build 0)  -->
<svg version="1.1" id="Layer_1" xmlns="http://www.w3.org/2000/svg" xmlns:xlink="http://www.w3.org/1999/xlink" x="0px" y="0px"
	 viewBox="0 0 500 381.5" style="enable-background:new 0 0 500 381.5;" xml:space="preserve">
<g>
	<path style="fill:#148A91;" d="M500,0v147.8c0,127.6-116.9,233.8-250,233.8C116.9,381.5,0,275.4,0,147.8V0H500z"/>
	<path style="fill:#16929A;" d="M250,0H0v147.8c0,127.6,116.9,233.8,250,233.8c0,0,0,0,0,0V0z"/>
	<path style="fill:#16929A;" d="M487.3,12.7v135.1c0,29.2-6.4,57.8-19.1,85c-12.2,26.2-29.7,49.9-51.9,70.4
		c-22.1,20.5-47.6,36.6-75.8,48c-29.1,11.7-59.6,17.7-90.5,17.7c-30.9,0-61.4-5.9-90.5-17.7c-28.2-11.3-53.7-27.5-75.8-48
		c-22.2-20.5-39.6-44.2-51.9-70.4c-12.7-27.2-19.1-55.8-19.1-85V12.7H487.3 M500,0H0v147.8c0,127.6,116.9,233.8,250,233.8
		c133.1,0,250-106.1,250-233.8V0L500,0z"/>
	<g>
		<path style="fill:#FFFFFF;" d="M243.3,214.8c-4.8,0-8.2,3.6-8.2,8.3c0,4.7,3.5,8.2,8.2,8.2c4.6,0,8.1-3.7,8.1-8.2
			C251.3,218.6,247.8,214.8,243.3,214.8 M251.2,233.1v-3.5h-0.1c-1.7,2.6-4.8,4-7.8,4c-6,0-10.8-4.5-10.8-10.6
			c0-6,4.9-10.5,10.8-10.5c3.1,0,6.1,1.4,7.8,4h0.1v-10.6h2.6v27.2H251.2z"/>
		<path style="fill:#FFFFFF;" d="M262.7,221.4v11.8h-2.6V213h2.6v2.9h0.1c1.1-2.6,3-3.2,5.7-3.4v2.7
			C264.9,215.5,262.7,217.8,262.7,221.4"/>
		<path style="fill:#FFFFFF;" d="M282.2,214.8c-4,0-7.2,2.9-7.8,6.9h15.7C289.4,217.8,286.3,214.8,282.2,214.8 M292.7,224h-18.3
			c0.2,4,3.9,7.3,7.8,7.3c3.1,0,6.1-1.8,7.2-4.7h2.7c-1.5,4.2-5.4,7.1-9.9,7.1c-5.8,0-10.5-4.7-10.5-10.5c0-5.7,4.7-10.6,10.4-10.6
			c5.9,0,10.6,5,10.6,10.8C292.8,223.5,292.7,223.8,292.7,224"/>
		<path style="fill:#FFFFFF;" d="M308.2,214.8c-4.8,0-8.2,3.6-8.2,8.3c0,4.7,3.5,8.2,8.2,8.2c4.6,0,8-3.7,8-8.2
			C316.2,218.6,312.7,214.8,308.2,214.8 M316.1,233.1v-3.5H316c-1.8,2.6-4.7,4-7.8,4c-6,0-10.8-4.5-10.8-10.6
			c0-6,4.9-10.5,10.8-10.5c3.2,0,6.1,1.3,7.8,4h0.1V213h2.6v20.1H316.1z"/>
		<path style="fill:#FFFFFF;" d="M351.9,233.1v-11.7c0-3.6-1.5-6.7-5.5-6.7c-4,0-5.5,3.1-5.5,6.7v11.7h-2.6v-11.7
			c0-3.6-1.5-6.7-5.5-6.7c-4,0-5.5,3.1-5.5,6.7v11.7h-2.6V213h2.6v2.3c1.2-1.9,3.3-2.8,5.5-2.8c2.9,0,5.4,1.4,6.8,3.9
			c1.5-2.5,3.8-3.9,6.8-3.9c5.1,0,8.1,3.7,8.1,8.7v11.9H351.9z"/>
		<path style="fill:#FFFFFF;" d="M365.5,233.6c-3.6,0-6.2-2.6-6.2-6.2v-0.2h2.6c0,2.3,1.1,4.1,3.6,4.1c2.3,0,3.7-1.3,3.7-3.6
			c0-5.3-9.3-2.9-9.3-9.6c0-3.3,2.5-5.6,5.7-5.6c3.1,0,5.5,2.4,5.5,5.5h-2.6c-0.1-1.7-1.2-3.2-3-3.2c-1.7,0-3,1.3-3,3
			c0,4.6,9.3,2.2,9.3,9.6C371.9,231.3,369.3,233.6,365.5,233.6"/>
		<g>
			<path style="fill:#FFFFFF;" d="M183.2,219.5L183.2,219.5L183.2,219.5l-0.3-0.5c0,0,0,0-0.1-0.1l-0.8-1.1c0,0,0,0,0,0
				c-1.2-1.5-3.2-4-3.5-4.4c0,0-0.1-0.1-0.1-0.1c0,0,0,0,0,0c-0.5-0.6-1.5-0.3-1.8,0.2c0,0,0,0,0.1,0.1c-1.3-1.2-8.4-7.4-8.4-7.4
				l-0.1,0c0,0,0,0,0,0c0,0,0,0,0,0l-5.7-1l0,0l0,0l-0.2,3l-0.2,3c0,0,0,0,0,0c0.3,0.6,0.6,1.2,0.9,1.7c0.7,1.4,1.4,2.8,2.1,4.2
				c0.4,0.7,0.7,1.5,1.1,2.2c0.2,0.3,0.3,0.7,0.5,1c0.1,0.3,0.2,0.5,0.3,0.8c0,0-0.1,0-0.1,0c-0.5,0.3-0.8,1.1-0.5,1.8
				c0.1,0.1,0.1,0.2,0.2,0.3c0,0,0,0.1,0.1,0.1c0.4,0.7,1,1.3,1.4,1.9c0.4,0.6,1,1.3,1.5,2c0,0,0,0,0,0l1.2,1.6l0,0c0,0,0,0,0,0
				c0.1,0,1.3-0.3,2.9-1.1l0.4-0.2c0,0,0,0,0,0c1-0.5,2.1-1.1,3.1-1.8c0,0,0,0,0.1-0.1c0.3-0.2,0.5-0.4,0.8-0.6
				c2-1.6,3.4-3.2,4.3-4.4c0-0.1,0.1-0.1,0.1-0.2c0.1-0.2,0.2-0.3,0.3-0.5c0,0,0-0.1,0.1-0.1C183,219.8,183.2,219.6,183.2,219.5
				C183.2,219.6,183.2,219.6,183.2,219.5L183.2,219.5z M166.6,208.4L166.6,208.4l-3.9-3l4.7,2.1l0,0
				C167.1,207.8,166.9,208.1,166.6,208.4z M174,216.9l-7-8.2c0.3-0.3,0.5-0.7,0.7-1l7.9,7.6c-0.3,0.4-0.6,0.7-1,1.1
				C174.4,216.6,174.2,216.8,174,216.9z M175,218.8L175,218.8C175,218.8,175,218.8,175,218.8L175,218.8z M178,222.7l-3-3.9l0.1-0.1
				c1.1-1,2-2,2.6-2.9l0,0l0,0c0,0,0,0,0,0l0,0l3,3.9C180.1,220.7,179.2,221.7,178,222.7z"/>
			<polygon style="fill:#FFFFFF;" points="110.2,212.7 110.2,212.7 110.2,212.7 			"/>
			<path style="fill:#FFFFFF;" d="M112.5,213.5c0,0,0.1-0.1,0.1-0.1c0,0,0,0,0,0c0.6-0.5,0.3-1.5-0.2-1.8c0,0,0,0-0.1,0.1
				c1.2-1.4,7.4-8.4,7.4-8.4l0-0.1c0,0,0,0,0,0c0,0,0,0,0,0l1-5.7l0,0h0l-6-0.5c-0.6,0.3-1.2,0.6-1.8,0.9c-1.4,0.7-2.8,1.4-4.1,2.1
				c-0.7,0.4-1.4,0.7-2.2,1.1c-0.4,0.2-0.7,0.4-1.1,0.5c-0.3,0.1-0.5,0.2-0.8,0.3c0,0,0-0.1,0-0.1c-0.3-0.5-1.1-0.8-1.8-0.5
				c-0.1,0.1-0.2,0.1-0.3,0.2c0,0-0.1,0-0.1,0.1c-0.7,0.4-1.3,1-1.9,1.4c-0.6,0.4-1.3,1-2,1.5c0,0,0,0,0,0l-1.6,1.2
				c0,0,0.3,1.2,1.1,2.9l0.2,0.4c0,0,0,0,0,0c0.5,1,1,2.1,1.8,3.1c0,0,0,0,0.1,0.1c0.2,0.3,0.4,0.5,0.5,0.8c1.6,2,3.2,3.5,4.4,4.3
				c0.1,0,0.1,0.1,0.2,0.1c0.2,0.1,0.4,0.3,0.5,0.4c0,0,0.1,0,0.1,0.1c0.4,0.2,0.6,0.4,0.6,0.4c0,0,0,0,0,0l0,0v0l0,0l0.4-0.3
				c0,0,0,0,0.1-0.1l1.1-0.8c0,0,0,0,0,0C109.6,215.8,112.1,213.8,112.5,213.5z M117.8,201.7l3-3.9l-2.1,4.7
				C118.3,202.2,118,201.9,117.8,201.7L117.8,201.7z M117.3,202c0.3,0.3,0.7,0.5,1,0.7l-7.6,7.9c-0.4-0.3-0.7-0.6-1.1-1
				c-0.2-0.2-0.4-0.4-0.5-0.6L117.3,202z M107.3,210C107.3,210,107.3,210,107.3,210L107.3,210L107.3,210z M106.2,215.7
				c-0.8-0.6-1.9-1.5-2.9-2.7l3.9-3l0.1,0.1c1,1.1,2,2,2.9,2.6l0,0c0,0,0,0,0,0l0,0L106.2,215.7z"/>
			<path style="fill:#FFFFFF;" d="M166.4,139.7c0,0,0-0.1,0.1-0.1c-0.7,1.7-4.3,10.3-4.3,10.3l0,0.1c0,0,0,0,0,0c0,0,0,0,0,0
				l0.9,5.7l0,0l0,0l1.7-0.4l4.1-1c0,0,0.1-0.1,0.1-0.1c0.4-0.4,0.9-0.9,1.3-1.3c1.1-1.1,2.2-2.3,3.4-3.4c0.5-0.5,1-1,1.6-1.6
				c0.3-0.3,0.6-0.6,1-0.9c0.2-0.2,0.4-0.4,0.6-0.5c0,0,0,0,0.1,0.1c0.4,0.4,1.3,0.4,1.8-0.1c0.1-0.1,0.2-0.2,0.2-0.2
				c0,0,0.1-0.1,0.1-0.1c0.5-0.6,0.9-1.3,1.3-2c0.4-0.6,0.9-1.4,1.4-2.1c0,0,0,0,0,0l1.1-1.7c0,0,0,0,0,0c0,0,0,0,0,0
				c-0.1-0.1-0.4-0.6-1-1.4c0,0,0,0,0,0l0,0c-0.2-0.3-0.5-0.6-0.8-0.9l-0.3-0.3c0,0,0,0,0,0c-0.8-0.8-1.7-1.6-2.7-2.4
				c0,0-0.1,0-0.2-0.1c-0.2-0.2-0.5-0.3-0.7-0.5c-2.1-1.4-4.2-2.2-5.5-2.6c-0.1,0-0.2-0.1-0.3-0.1c-0.2-0.1-0.4-0.1-0.5-0.1
				c0,0-0.1,0-0.1,0c-0.4-0.1-0.7-0.2-0.7-0.2c0,0,0,0,0,0l0,0l0,0l-0.3,0.5c0,0,0,0-0.1,0.1l-0.8,1.1c0,0,0,0,0,0
				c-1,1.6-2.8,4.3-3.1,4.7c0,0,0,0.1,0,0.1c0,0,0,0,0,0C165.3,138.7,165.8,139.5,166.4,139.7z M164.5,150.8l-1.6,4.7l0.5-5.1
				C163.8,150.4,164.2,150.6,164.5,150.8L164.5,150.8z M164.8,150.3c-0.4-0.1-0.8-0.2-1.2-0.3l4.7-9.9c0.5,0.2,0.9,0.4,1.3,0.6
				c0.2,0.1,0.5,0.2,0.7,0.4L164.8,150.3z M171.8,139.5C171.8,139.5,171.8,139.5,171.8,139.5L171.8,139.5L171.8,139.5z M168.2,137.9
				l2.8-4.1c1,0.3,2.3,0.8,3.6,1.6l-2.8,4.1l-0.1,0C170.4,138.7,169.1,138.2,168.2,137.9L168.2,137.9L168.2,137.9z"/>
			<path style="fill:#FFFFFF;" d="M165,230.8c0,0,0-0.1,0-0.2l-0.3-1.3c0,0,0,0,0,0c-0.5-1.8-1.4-4.9-1.5-5.4c0-0.1,0-0.1-0.1-0.1
				c0,0,0,0,0,0c-0.3-0.8-1.2-0.9-1.7-0.5c0,0,0,0,0,0.1c-0.8-1.7-4.9-10-4.9-10l-0.1,0c0,0,0,0,0,0c0,0,0,0,0,0l-4.9-3.1l0,0
				l-2.7,5.3c0,0.1,0,0.2,0,0.3c0,0.5,0.1,1,0.1,1.5c0.1,1.6,0.2,3.2,0.4,4.8c0.1,0.9,0.1,1.8,0.2,2.6c0,0.3,0,0.7,0.1,1
				c0,0.3,0,0.6,0,0.8c0,0-0.1,0-0.1,0c-0.6,0.1-1.1,0.8-1.1,1.4c0,0.1,0,0.2,0,0.3c0,0,0,0.1,0,0.1c0.1,0.8,0.4,1.5,0.6,2.3
				c0.2,0.7,0.4,1.6,0.6,2.5c0,0,0,0,0,0l0.5,1.9c0,0,0,0,0,0l0,0c0,0,1.2,0.2,3.1,0.1l0.4,0c0,0,0,0,0,0c1.1,0,2.3-0.2,3.5-0.5
				c0,0,0.2,0,0.5-0.1c0.2,0,0.3-0.1,0.5-0.1c2.5-0.7,4.4-1.7,5.6-2.4c0.1,0,0.1-0.1,0.2-0.1c0.2-0.1,0.4-0.2,0.5-0.3
				c0,0,0.1,0,0.1-0.1c0.4-0.3,0.6-0.5,0.6-0.5l0,0L165,230.8z M154.2,214.7l-2.5-4.2l3.5,3.8C154.9,214.4,154.6,214.5,154.2,214.7
				L154.2,214.7z M154.4,215.2c0.4-0.2,0.7-0.4,1-0.7l4.4,10c-0.4,0.2-0.9,0.4-1.3,0.6c-0.2,0.1-0.5,0.2-0.7,0.3L154.4,215.2z
				 M157.9,227.6L157.9,227.6C157.9,227.6,157.9,227.6,157.9,227.6L157.9,227.6z M159.2,232.3l-1.3-4.8l0.1,0
				c1.4-0.5,2.6-1.1,3.5-1.6l1.3,4.8C161.9,231.2,160.7,231.8,159.2,232.3z"/>
			<path style="fill:#FFFFFF;" d="M108.9,140.8l0.7,1c0,0,0,0,0,0c1.1,1.6,2.9,4.2,3.2,4.6c0,0,0.1,0.1,0.1,0.1c0,0,0,0,0,0
				c0.5,0.6,1.5,0.4,1.8,0c0,0,0,0-0.1-0.1c1.3,1.3,7.8,7.9,7.8,7.9l0.1,0c0,0,0,0,0,0c0,0,0,0,0,0l5.6,1.4v0l0,0l0,0l0.4-2.9l0.5-3
				c-0.2-0.6-0.5-1.1-0.7-1.7c-0.6-1.5-1.3-3.1-1.9-4.6c-0.3-0.7-0.6-1.4-0.8-2.1c-0.2-0.4-0.3-0.8-0.5-1.2
				c-0.1-0.3-0.2-0.6-0.3-0.8c0,0,0.1,0,0.1,0c0.5-0.3,0.8-1.1,0.6-1.7c0-0.1-0.1-0.2-0.1-0.3c0,0,0-0.1-0.1-0.1
				c-0.4-0.7-0.9-1.3-1.3-2c-0.4-0.6-0.9-1.4-1.4-2.1c0,0,0,0,0,0l-1.1-1.7c0,0-1,0.2-2.6,0.7c-0.1,0-0.3,0.1-0.4,0.1l-0.4,0.1
				c0,0,0,0,0,0c-1,0.4-2.2,0.9-3.2,1.6c0,0-0.2,0.1-0.5,0.3c-0.1,0.1-0.3,0.2-0.4,0.3c-2.1,1.4-3.6,3-4.5,4.1
				c-0.1,0.1-0.1,0.2-0.2,0.2c-0.1,0.1-0.2,0.3-0.3,0.4c0,0-0.1,0.1-0.1,0.1c-0.2,0.3-0.4,0.5-0.4,0.6c0,0,0,0,0,0l0.3,0.5
				C108.8,140.6,108.8,140.6,108.9,140.8z M124.2,152.4L124.2,152.4l3.7,3.3l-4.5-2.4C123.6,153,123.9,152.7,124.2,152.4z
				 M117.4,143.3l6.4,8.6c-0.3,0.3-0.5,0.6-0.7,1l-7.3-8.1c0.3-0.3,0.7-0.7,1-1C117,143.7,117.2,143.5,117.4,143.3z M116.6,141.4
				L116.6,141.4C116.6,141.4,116.6,141.4,116.6,141.4L116.6,141.4z M113.8,137.3l2.7,4.1l0,0c-1.2,1-2.1,1.9-2.8,2.7l0,0l0,0
				c0,0,0,0,0,0l0,0L111,140C111.7,139.2,112.6,138.2,113.8,137.3z"/>
			<path style="fill:#FFFFFF;" d="M145.6,227.5C145.6,227.5,145.6,227.5,145.6,227.5c0.1-0.8-0.8-1.3-1.3-1.2c0,0,0,0,0,0.1
				c0-1.9-0.3-11.1-0.3-11.1l0-0.1c0,0,0,0,0,0c0,0,0,0,0,0l-3.1-4.8l-2,1.6l-2.6,2.1c-0.2,0.6-0.4,1.2-0.7,1.8
				c-0.5,1.5-1.1,3-1.7,4.4c-0.3,0.7-0.6,1.5-0.8,2.2c-0.2,0.4-0.3,0.8-0.5,1.2c-0.1,0.3-0.2,0.5-0.3,0.8c0,0-0.1,0-0.1,0
				c-0.6-0.2-1.3,0.2-1.6,0.8c-0.1,0.1-0.1,0.2-0.1,0.3c0,0,0,0.1,0,0.1c-0.2,0.7-0.3,1.6-0.4,2.3c-0.1,0.7-0.3,1.6-0.4,2.5
				c0,0,0,0,0,0l-0.3,2v0v0c0,0,0,0,0,0c0.1,0.1,1.1,0.7,2.7,1.4l0.4,0.2c0,0,0,0,0,0c1,0.4,2,0.8,3.2,1c0,0,0,0,0.1,0
				c0,0,0.1,0,0.1,0c0,0,0.2,0,0.5,0.1c0.2,0,0.4,0.1,0.6,0.1c2.5,0.4,4.7,0.3,6.1,0.1c0.1,0,0.1,0,0.2,0c0.2,0,0.4-0.1,0.6-0.1
				c0,0,0.1,0,0.1,0c0.5-0.1,0.7-0.2,0.7-0.2l0,0l0.1-0.6c0,0,0-0.1,0-0.2l0.2-1.2c0,0,0,0,0,0c0.3-1.9,0.8-5,0.9-5.6
				C145.6,227.6,145.6,227.6,145.6,227.5z M142.5,215.4L142.5,215.4c-0.4,0-0.7,0.1-1.1,0.1l0,0l-0.5-4.9L142.5,215.4z M141.3,216
				c0.4,0,0.8-0.1,1.2-0.2l-0.2,10.9c-0.5,0-1,0-1.5,0c-0.3,0-0.5,0-0.8-0.1L141.3,216z M139.4,228.7
				C139.4,228.7,139.4,228.7,139.4,228.7L139.4,228.7L139.4,228.7z M142.5,233.6c-1,0.1-2.4,0.1-3.9,0l0.8-4.9l0.1,0
				c1.5,0.1,2.8,0.1,3.8,0l0,0l0,0c0,0,0,0,0,0l0,0L142.5,233.6z"/>
			<path style="fill:#FFFFFF;" d="M96,158.4l1.1,0.7c0,0,0,0,0,0c1.6,1,4.3,2.6,4.8,2.9c0,0,0.1,0,0.1,0c0,0,0,0,0,0
				c0.7,0.4,1.5-0.2,1.6-0.8c0,0-0.1,0-0.1,0c1.7,0.7,10.4,4,10.4,4l0.1,0c0,0,0,0,0,0c0,0,0,0,0,0l5.7-1l0,0l-1.6-5.8
				c-0.5-0.5-1.1-1-1.6-1.5c-1.1-1-2.2-2.1-3.3-3.1c-0.6-0.5-1.1-1.1-1.7-1.6c-0.3-0.3-0.6-0.6-0.9-0.9c-0.2-0.2-0.4-0.4-0.6-0.6
				c0,0,0,0,0.1-0.1c0.4-0.4,0.3-1.3-0.1-1.8c-0.1-0.1-0.2-0.2-0.3-0.2c0,0-0.1-0.1-0.1-0.1c-0.6-0.5-1.3-0.9-2-1.3
				c-0.6-0.4-1.4-0.9-2.1-1.4c0,0,0,0,0,0l-1.7-1.1c0,0-0.9,0.6-2.1,1.8c0,0,0,0,0,0c-0.1,0.1-0.1,0.1-0.2,0.2l-0.3,0.3c0,0,0,0,0,0
				c-0.8,0.8-1.6,1.7-2.3,2.7c0,0-0.1,0.2-0.3,0.4c-0.1,0.2-0.2,0.3-0.3,0.5c-1.4,2.2-2.1,4.2-2.5,5.6c0,0.1,0,0.2-0.1,0.2
				c-0.1,0.2-0.1,0.4-0.1,0.6c0,0,0,0.1,0,0.1c-0.1,0.5-0.1,0.7-0.1,0.7c0,0,0,0,0,0l0.5,0.3C95.9,158.3,96,158.4,96,158.4z
				 M114.8,162.8L114.8,162.8l4.7,1.4l-5.1-0.4C114.6,163.5,114.7,163.2,114.8,162.8z M104.6,158c0.1-0.2,0.2-0.5,0.4-0.7l9.4,5.2
				c-0.1,0.4-0.2,0.8-0.3,1.2l-10-4.4C104.2,158.9,104.4,158.5,104.6,158z M103.4,155.9L103.4,155.9
				C103.4,155.9,103.4,155.9,103.4,155.9L103.4,155.9z M99.2,153.3l4.2,2.6l0,0.1c-0.7,1.4-1.2,2.6-1.5,3.6l0,0l0,0c0,0,0,0,0,0l0,0
				l-4.2-2.7C98,155.9,98.5,154.6,99.2,153.3z"/>
			<path style="fill:#FFFFFF;" d="M126.8,222.2c0,0,0,0.1-0.1,0.1c0.6-1.7,3.8-10.5,3.8-10.5l0-0.1c0,0,0,0,0,0c0,0,0,0,0,0
				l-1.1-5.6l0,0l-5.7,1.7l0,0l0,0c-0.1,0.1-0.3,0.3-0.4,0.4c-0.3,0.3-0.5,0.6-0.8,0.9c-1.1,1.2-2.2,2.4-3.3,3.6
				c-0.6,0.6-1.2,1.3-1.7,1.9c-0.3,0.3-0.5,0.5-0.8,0.8c-0.2,0.2-0.4,0.4-0.6,0.6c0,0,0,0-0.1-0.1c-0.5-0.4-1.3-0.3-1.8,0.2
				c-0.1,0.1-0.2,0.2-0.2,0.3c0,0-0.1,0.1-0.1,0.1c-0.5,0.6-0.8,1.4-1.2,2c-0.4,0.6-0.9,1.4-1.3,2.2l0,0l-1,1.7c0,0,0,0,0,0.1
				c0,0,0,0,0,0c0.1,0.1,0.7,0.9,1.8,2c0,0,0.1,0.1,0.1,0.1c0,0,0.1,0.1,0.1,0.1l0.3,0.3c0,0,0,0,0,0c0.8,0.8,1.7,1.6,2.8,2.2
				c0,0,0.2,0.1,0.5,0.3c0.1,0.1,0.3,0.2,0.4,0.3c2.2,1.3,4.2,2,5.6,2.4c0.1,0,0.2,0,0.3,0.1c0.2,0,0.4,0.1,0.5,0.1
				c0.1,0,0.1,0,0.2,0c0.4,0.1,0.7,0.1,0.7,0.1c0,0,0,0,0,0l0,0l0,0l0-0.1l0.3-0.4c0,0,0,0,0.1-0.1l0.7-1.2c0,0,0,0,0,0
				c1-1.6,2.6-4.4,2.9-4.8c0,0,0-0.1,0-0.1c0,0,0,0,0,0C127.9,223.1,127.3,222.3,126.8,222.2z M128.1,211l1.3-4.7l-0.3,5.1
				C128.8,211.3,128.4,211.2,128.1,211L128.1,211z M127.8,211.5c0.4,0.1,0.8,0.2,1.2,0.2l-4.2,10.1c-0.5-0.2-0.9-0.3-1.4-0.5
				c-0.2-0.1-0.5-0.2-0.7-0.3L127.8,211.5z M121.3,222.6C121.3,222.6,121.4,222.6,121.3,222.6L121.3,222.6L121.3,222.6z
				 M122.5,228.3c-1-0.3-2.3-0.7-3.7-1.4l2.6-4.2l0.1,0c1.4,0.7,2.6,1.1,3.6,1.4l0,0c0,0,0,0,0,0l0,0L122.5,228.3z"/>
			<polygon style="fill:#FFFFFF;" points="125.1,224.1 125.1,224.1 125.1,224.1 			"/>
			<path style="fill:#FFFFFF;" d="M127.8,129.7C127.8,129.7,127.8,129.7,127.8,129.7l0.3,1.4c0,0,0,0,0,0c0.4,1.9,1,5,1.1,5.5
				c0,0.1,0,0.1,0.1,0.1c0,0,0,0,0,0c0.2,0.8,1.2,0.9,1.7,0.7c0,0,0-0.1,0-0.1c0.7,1.7,4.1,10.4,4.1,10.4l0.1,0c0,0,0,0,0,0
				c0,0,0,0,0,0l4.6,3.5l2.8-4.6l0.3-0.5v0l0,0c0-0.1,0-0.1,0-0.2c0-0.6,0-1.3,0-1.9c0-1.6,0-3.1,0-4.6c0-0.8,0-1.6,0-2.3
				c0-0.4,0-0.9,0-1.3c0-0.3,0-0.6,0.1-0.8c0,0,0.1,0,0.1,0c0.6,0,1.2-0.7,1.3-1.3c0-0.2,0-0.3,0-0.3c0,0,0-0.1,0-0.1
				c-0.1-0.8-0.3-1.6-0.4-2.3c-0.1-0.7-0.3-1.6-0.4-2.5c0,0,0,0,0,0l-0.4-1.9c0,0,0,0,0-0.1c0,0,0,0,0,0c-0.1,0-1.3-0.3-3-0.3
				l-0.4,0c0,0,0,0,0,0c-1.1,0-2.3,0-3.6,0.2c0,0-0.2,0-0.5,0.1c-0.2,0-0.3,0-0.5,0.1c-2.5,0.5-4.5,1.3-5.8,2
				c-0.1,0-0.1,0.1-0.2,0.1c-0.2,0.1-0.4,0.2-0.6,0.3c0,0,0,0-0.1,0c-0.4,0.2-0.6,0.4-0.6,0.4l0,0L127.8,129.7z M137.3,146.6
				l2.1,4.4l-3.2-4C136.6,146.9,137,146.7,137.3,146.6L137.3,146.6z M137.2,146c-0.4,0.2-0.7,0.4-1,0.6l-3.6-10.3
				c0.4-0.2,0.9-0.4,1.4-0.5c0.2-0.1,0.5-0.1,0.8-0.2L137.2,146z M134.6,133.5L134.6,133.5C134.6,133.5,134.6,133.5,134.6,133.5
				L134.6,133.5z M133.7,128.6l0.9,4.9l-0.1,0c-1.5,0.4-2.7,0.9-3.6,1.4l0,0l0,0c0,0,0,0,0,0l0,0L130,130
				C131,129.5,132.2,129,133.7,128.6z"/>
			<polygon style="fill:#FFFFFF;" points="101,195.8 101,195.8 101,195.8 			"/>
			<path style="fill:#FFFFFF;" d="M97.5,199c1.8-0.6,4.8-1.5,5.4-1.7c0.1,0,0.1,0,0.1-0.1c0,0,0,0,0,0c0.7-0.3,0.8-1.3,0.5-1.7
				c0,0,0,0-0.1,0c1.7-0.9,9.8-5.2,9.8-5.2l0-0.1c0,0,0,0,0,0c0,0,0,0,0,0l2.9-5v0l-5.4-2.6c-0.1,0-0.1,0-0.2,0
				c-0.6,0.1-1.2,0.1-1.8,0.2c-1.6,0.2-3.1,0.3-4.7,0.5c-0.9,0.1-1.7,0.2-2.6,0.2c-0.4,0-0.7,0.1-1.1,0.1c-0.3,0-0.6,0-0.8,0
				c0,0,0-0.1,0-0.1c-0.1-0.6-0.8-1.1-1.5-1.1c-0.1,0-0.2,0-0.3,0.1c0,0-0.1,0-0.1,0c-0.8,0.2-1.5,0.4-2.3,0.7
				c-0.7,0.2-1.6,0.5-2.4,0.7c0,0,0,0,0,0l-1.9,0.6c0,0,0,0,0,0c0,0,0,0,0,0c0,0-0.1,1.1,0,2.8c0,0,0,0,0,0c0,0.1,0,0.2,0,0.3l0,0.4
				c0,0,0,0,0,0c0.1,1.1,0.2,2.3,0.6,3.5c0,0,0,0.2,0.1,0.5c0,0.2,0.1,0.3,0.1,0.5c0.7,2.4,1.8,4.4,2.6,5.5c0,0.1,0.1,0.1,0.1,0.2
				c0.1,0.2,0.2,0.3,0.3,0.5c0,0,0.1,0.1,0.1,0.1c0.3,0.4,0.5,0.6,0.5,0.6l0,0l0.5-0.1c0,0,0,0,0.1,0L97.5,199
				C97.6,199,97.6,199,97.5,199z M112,188.1l4.2-2.6l-3.6,3.6C112.3,188.8,112.2,188.5,112,188.1L112,188.1z M111.4,188.3
				c0.2,0.4,0.5,0.7,0.7,1l-9.9,4.7c-0.2-0.4-0.5-0.9-0.7-1.3c-0.1-0.2-0.2-0.5-0.3-0.7L111.4,188.3z M99.2,192.2
				C99.2,192.2,99.2,192.2,99.2,192.2L99.2,192.2L99.2,192.2z M96.2,197.2c-0.6-0.9-1.2-2.1-1.8-3.5l4.7-1.4l0,0.1
				c0.6,1.4,1.2,2.6,1.7,3.4l0,0c0,0,0,0,0,0l0,0L96.2,197.2z"/>
			<path style="fill:#FFFFFF;" d="M148.9,135.1c0,1.9-0.1,11.1-0.1,11.1l0,0.1c0,0,0,0,0,0c0,0,0,0,0,0l3,4.9l0,0l0,0l1.2-0.9
				l3.6-2.7c0,0,0,0,0,0c0.3-0.7,0.6-1.4,0.9-2.1c0.5-1.3,1.1-2.7,1.6-4c0.3-0.8,0.7-1.6,1-2.3c0.2-0.4,0.3-0.7,0.5-1.1
				c0.1-0.3,0.2-0.5,0.4-0.7c0,0,0.1,0,0.1,0c0.6,0.2,1.4-0.2,1.7-0.8c0.1-0.1,0.1-0.2,0.1-0.3c0,0,0-0.1,0-0.1
				c0.2-0.7,0.3-1.6,0.5-2.3c0.2-0.7,0.3-1.6,0.5-2.5c0,0,0,0,0,0l0.4-1.9c0,0,0-0.1,0-0.1c0,0,0,0,0,0c-0.1-0.1-1-0.6-2.4-1.3
				c0,0-0.1,0-0.1-0.1c-0.1,0-0.1-0.1-0.2-0.1l-0.4-0.2c0,0,0,0,0,0c-1-0.4-2.2-0.9-3.4-1.2c0,0-0.2,0-0.5-0.1
				c-0.2,0-0.3-0.1-0.5-0.1c-2.5-0.5-4.7-0.5-6.1-0.3c-0.1,0-0.2,0-0.3,0c-0.2,0-0.4,0-0.5,0.1c-0.1,0-0.1,0-0.2,0
				c-0.5,0.1-0.7,0.1-0.7,0.1c0,0,0,0,0,0l-0.1,0.6c0,0,0,0.1,0,0.1l-0.3,1.3c0,0,0,0,0,0c-0.4,1.9-0.9,5-1.1,5.5c0,0.1,0,0.1,0,0.1
				c0,0,0,0,0,0C147.5,134.7,148.4,135.2,148.9,135.1C148.9,135.2,148.9,135.1,148.9,135.1z M150.3,146.1c0.4,0,0.7,0,1.1,0l0,0
				l0.3,4.9L150.3,146.1z M151.5,145.5c-0.4,0-0.8,0.1-1.2,0.2l0.5-10.9c0.5,0,1,0,1.5,0c0.3,0,0.5,0.1,0.8,0.1L151.5,145.5z
				 M153.9,132.9C153.9,132.9,153.9,132.9,153.9,132.9L153.9,132.9L153.9,132.9z M150.9,127.9c1.1-0.1,2.4-0.1,3.9,0.1l-1,4.8
				l-0.1,0c-1.5-0.2-2.8-0.2-3.9-0.1L150.9,127.9z"/>
			<polygon style="fill:#FFFFFF;" points="97.3,177.3 97.3,177.3 97.3,177.3 			"/>
			<path style="fill:#FFFFFF;" d="M91.4,178.5l1.4,0.2c0,0,0,0,0,0c1.9,0.3,5,0.7,5.6,0.8c0.1,0,0.1,0,0.1,0c0,0,0,0,0,0
				c0.8,0.1,1.3-0.8,1.2-1.4c0,0,0,0-0.1,0c1.9-0.1,11.1-0.4,11.1-0.4l0.1,0c0,0,0,0,0,0c0,0,0,0,0,0l4.8-3.2l0,0l0,0l-3.8-4.7
				c-0.6-0.2-1.3-0.5-1.9-0.7c-1.5-0.5-3-1.1-4.4-1.6c-0.7-0.3-1.4-0.5-2.1-0.8c-0.4-0.2-0.9-0.3-1.3-0.5c-0.3-0.1-0.5-0.2-0.8-0.3
				c0,0,0-0.1,0-0.1c0.2-0.6-0.2-1.3-0.8-1.6c-0.1-0.1-0.2-0.1-0.3-0.1c0,0-0.1,0-0.1,0c-0.8-0.2-1.6-0.3-2.3-0.4
				c-0.7-0.1-1.6-0.3-2.5-0.4c0,0,0,0,0,0l-1.9-0.3c0,0-0.1,0-0.1,0c0,0,0,0,0,0c-0.1,0.1-0.7,1.1-1.3,2.7l-0.2,0.4c0,0,0,0,0,0
				c-0.4,1-0.8,2.2-1,3.4c0,0,0,0.2-0.1,0.5c0,0.2-0.1,0.3-0.1,0.5c-0.4,2.5-0.3,4.7-0.1,6.1c0,0.1,0,0.2,0,0.3
				c0,0.2,0.1,0.4,0.1,0.6c0,0,0,0.1,0,0.1c0.1,0.5,0.2,0.7,0.2,0.7c0,0,0,0,0,0L91.4,178.5C91.4,178.5,91.4,178.5,91.4,178.5z
				 M110.6,175.2l4.9-0.5l-4.9,1.7C110.5,175.9,110.5,175.6,110.6,175.2L110.6,175.2z M99.3,174l10.7,1.1c0,0.4,0.1,0.8,0.2,1.2
				l-10.9-0.1c0-0.5,0-1,0-1.5C99.2,174.5,99.2,174.2,99.3,174z M97.3,173.3C97.3,173.3,97.3,173.3,97.3,173.3L97.3,173.3
				L97.3,173.3z M92.4,172.5l4.9,0.8l0,0.1c-0.1,1.5,0,2.9,0.1,3.9v0c0,0,0,0,0,0l0,0l-4.9-0.8C92.3,175.4,92.2,174.1,92.4,172.5z"
				/>
		</g>
		<path style="fill:#FFFFFF;" d="M194,165.3c-8.5,0.8-13.7,2.9-15.8,6.2c-2.1,3.3-3,6.4-2.7,9.2c0.3,2.8,0.7,5.1,1.2,7
			c0.5,1.9,1.2,3.6,2,5.3c0.8,1.7,2.1,3.1,3.9,4.4c1.8,1.2,4.4,2,8.1,2.2c3.6,0.2,6.6-0.3,8.9-1.4c2.3-1.1,4.2-3,5.9-5.6
			c1.7-2.6,2.3-6.1,2-10.6c-0.3-4.4-0.9-8-1.7-10.5C205,168.8,201.1,166.7,194,165.3 M206,163.1c2.4,2.3,3.9,5.6,4.5,9.9
			c0.6,4.3,0.8,9.2,0.5,14.7c-0.3,5.5-1.7,9.2-4.2,11.2c-2.5,2-7.1,3.2-13.8,3.6c-6.7,0.4-11.9-0.3-15.4-2.2
			c-3.5-1.8-5.5-5.8-5.9-11.8c-0.4-6-0.2-11.5,0.6-16.6c0.8-5.1,7.1-9.1,18.9-12C198.7,159.8,203.6,160.8,206,163.1"/>
		<path style="fill:#FFFFFF;" d="M215.4,146.4l6.5-1c-0.3,23.4,0,42.3,0.9,56.9l-5.9,1C217.6,184,217.1,165.1,215.4,146.4"/>
		<path style="fill:#FFFFFF;" d="M249.3,165.3c-8.5,0.8-13.7,2.9-15.8,6.2c-2.1,3.3-3,6.4-2.7,9.2c0.3,2.8,0.7,5.1,1.2,7
			c0.5,1.9,1.2,3.6,2,5.3c0.8,1.7,2.1,3.1,3.9,4.4c1.8,1.2,4.4,2,8.1,2.2c3.6,0.2,6.6-0.3,8.8-1.4c2.3-1.1,4.2-3,5.9-5.6
			c1.7-2.6,2.3-6.1,2-10.6c-0.3-4.4-0.9-8-1.7-10.5C260.3,168.8,256.4,166.7,249.3,165.3 M261.3,163.1c2.4,2.3,3.9,5.6,4.5,9.9
			c0.6,4.3,0.8,9.2,0.5,14.7c-0.3,5.5-1.7,9.2-4.2,11.2c-2.5,2-7.1,3.2-13.8,3.6c-6.7,0.4-11.8-0.3-15.4-2.2
			c-3.5-1.8-5.5-5.8-5.9-11.8c-0.4-6-0.2-11.5,0.6-16.6c0.8-5.1,7.1-9.1,18.9-12C254,159.8,258.9,160.8,261.3,163.1"/>
		<path style="fill:#FFFFFF;" d="M270.8,164l6.2-1.2l-0.3,8.7c3.1-5.6,6.3-8.6,9.8-9.2c3.4-0.5,5.3-0.3,5.7,0.6
			c0.4,0.9,1.1,1.9,2.2,2.9l-2.5,5l-2.2-4.4c-2.1,0.2-3.8,0.8-5.3,1.7c-1.4,0.9-2.8,2.5-4,4.6c-1.2,2.2-2.1,4.7-2.5,7.5
			c-0.4,2.8-0.6,6-0.6,9.6c0,3.6,0.4,7.5,1.2,11.6l-6.5,0.3c-0.6-8.5-0.9-15.3-0.9-20.3C271.2,176.5,271,170.6,270.8,164"/>
		<path style="fill:#FFFFFF;" d="M305.4,180.3c0.2,5.1,0.2,12,0,20.6h8c-2.3-12.2-3.6-23.8-4-34.8l-6.5,0.5
			C304.4,170.6,305.2,175.2,305.4,180.3 M314.8,153.3c0.4,2.9-2,5-7.1,6.1c-5.1,1.2-8,1.4-8.7,0.7c-0.7-0.7-0.9-2.4-0.4-5.2
			c0.4-2.8,3.9-4.7,10.3-5.6C312.4,149,314.4,150.4,314.8,153.3"/>
		<path style="fill:#FFFFFF;" d="M322.5,161.2l5.6-0.9l0.3,3.7c4.8-2.9,8.8-4.6,12.1-5c3.3-0.4,6.6,0.3,9.8,2
			c3.2,1.8,5.5,4.4,6.8,7.9c1.4,3.5,2.3,7.6,2.8,12.1c0.5,4.5,0.9,11.3,1.1,20.2h-4.7v-14.9c-1.2-8.9-2.6-14.5-4.2-16.9
			c-1.5-2.4-3.2-3.9-4.8-4.7c-1.7-0.7-3.3-1.3-5-1.6c-1.7-0.3-3.4-0.1-5.1,0.6c-1.8,0.7-3.6,1.8-5.4,3.3c-1.8,1.4-2.8,3.7-2.9,6.7
			c-0.1,3-0.4,7.5-0.8,13.5v14h-5.9c0.6-10.2,0.7-21.2,0.3-33.2V161.2z"/>
		<path style="fill:#FFFFFF;" d="M401.3,173.1c-1.7-2.9-3.4-4.9-5.3-5.9c-1.9-1-3.6-1.7-5.1-1.9c-1.5-0.2-4.3-0.2-8.2,0
			c-3.9,0.2-6.9,1.2-8.9,2.9c-2,1.8-3.1,4-3.4,6.7c-0.3,2.7-0.2,5.4,0.5,8.1c0.6,2.7,1.4,5.1,2.3,7.3c0.9,2.2,2.5,3.7,4.6,4.5
			c2.1,0.9,4.3,1.4,6.7,1.6c2.3,0.2,4.8-0.2,7.5-1.3c2.7-1,4.8-2.6,6.4-4.8c1.5-2.2,2.5-4.6,2.8-7.3
			C401.5,180.4,401.5,177.1,401.3,173.1 M403.2,159.8l6.5,2.5c-0.6,1.9-1.3,4.5-2.2,7.8c-0.8,3.3-1.2,6.7-1.2,10.2V191
			c0,3.6,0.1,7,0.3,10.1c0.2,3.1,0,5.7-0.5,7.9c-0.5,2.2-1.1,3.9-1.6,5.1c-0.5,1.2-1.3,2.3-2.3,3.1c-1,0.8-2.3,1.4-3.9,1.8
			c-1.6,0.4-3.4,0.6-5.4,0.7c-2,0.1-5.4-0.8-10.2-2.5l-3.6-3.5l5.8-3.8c2.6,3,4.8,4.5,6.7,4.6c1.9,0.1,3.6-0.1,5.3-0.4
			c1.7-0.3,2.9-2.7,3.9-7.3l0.8-13.9c-3.9,4.3-8,6.7-12.2,7.2c-4.2,0.5-8.2,0.3-11.8-0.5c-3.6-0.8-6.6-2.5-8.9-5.2
			c-2.3-2.7-3.6-5.7-4-9.2c-0.4-3.4-0.2-7.9,0.8-13.3c0.9-5.5,3.3-8.8,7.2-10.1c3.8-1.2,8-2.1,12.4-2.7c4.4-0.5,7.7-0.3,9.8,0.8
			c2.1,1,4.5,2.5,7.1,4.4L403.2,159.8z"/>
	</g>
</g>
</svg>
