<?xml version="1.0" encoding="utf-8"?>
<!-- Generator: Adobe Illustrator 18.1.0, SVG Export Plug-In . SVG Version: 6.00 Build 0)  -->
<svg version="1.1" id="Layer_1" xmlns="http://www.w3.org/2000/svg" xmlns:xlink="http://www.w3.org/1999/xlink" x="0px" y="0px"
	 viewBox="0 0 109.2 109.2" style="enable-background:new 0 0 109.2 109.2;" xml:space="preserve">
<g>
	<circle style="fill:#7A69A2;" cx="54.6" cy="54.6" r="54.6"/>
	<path style="fill:#735999;" d="M54.6,2.3v104.6c28.4-0.6,52.3-23.7,52.3-52.3S83,2.9,54.6,2.3z"/>
	<path style="fill:#7AC4D3;" d="M63.7,43.3V24.6h0.9c1,0,1.8-0.8,1.8-1.8v-2.9c0-1-0.8-1.8-1.8-1.8H45.6c-1,0-1.8,0.8-1.8,1.8v2.9
		c0,1,0.8,1.8,1.8,1.8h0.9v18.7C35.4,47,27.6,57.7,28.3,70.2c0.7,13.8,12,25,25.8,25.5c15.4,0.6,28-11.7,28-26.9
		C82.1,57,74.4,46.9,63.7,43.3z"/>
	<path style="fill:#19ABB5;" d="M31.1,63.3c-0.5,2.1-0.8,3.9-0.8,6.2c0,13.7,11.1,24.7,24.8,24.7s24.8-11,24.8-24.7
		c0-2.2-0.3-4.1-0.8-6.2C79.1,63.3,31.1,63.3,31.1,63.3z"/>
	<path style="fill:#7FCCD6;" d="M54.6,18.2h-9c-1,0-1.7,0.8-1.7,1.7v2.9c0,1,0.8,2,1.7,2h0.8v18.4C35.6,47,27.5,57.7,28.2,70.2
		c0.7,13.8,12,25,25.8,25.5c0.2,0,0.6,0,0.6,0L54.6,18.2L54.6,18.2z"/>
	<path style="fill:#00939B;" d="M54.6,63.3H31.1c-0.5,2.1-0.8,3.9-0.8,6.2c0,13.5,10.9,24.4,24.3,24.7V63.3z"/>
	<circle style="fill:#7FCCD6;" cx="67.1" cy="50.5" r="3.2"/>
	<circle style="fill:#7FCCD6;" cx="71.4" cy="53.6" r="2.5"/>
</g>
</svg>
