<?xml version="1.0" encoding="utf-8"?>
<!-- Generator: Adobe Illustrator 18.1.0, SVG Export Plug-In . SVG Version: 6.00 Build 0)  -->
<svg version="1.1" id="Layer_1" xmlns="http://www.w3.org/2000/svg" xmlns:xlink="http://www.w3.org/1999/xlink" x="0px" y="0px"
	 viewBox="0 0 109.2 109.2" style="enable-background:new 0 0 109.2 109.2;" xml:space="preserve">
<g>
	<g>
		<circle style="fill:#F37032;" cx="54.6" cy="54.6" r="54.6"/>
		<path style="fill:#D56230;" d="M54.6,2.4v104.6c28.4-0.6,52.3-23.7,52.3-52.3S83,2.9,54.6,2.4z"/>
	</g>
	<g>
		<g>
			<circle style="fill:#00939B;" cx="54.9" cy="63.8" r="32.1"/>
			<path style="fill:#19ABB5;" d="M54.8,31.7c-0.1,0-0.2,0-0.2,0v64.2c0,0,0.2,0,0.2,0c17.7,0,32.1-14.4,32.1-32.1
				S72.6,31.7,54.8,31.7z"/>
			<path style="fill:#A7C539;" d="M40.1,41.6c0,0-15.5,5.5-14.3,13.4c1.3,7.8,1.5,5.3,11.7,9c10.3,3.7,10.3,3.6,10.3,7.7
				c0,3.6,4.6,0,4.6,0s-3.4,3.6-4.6,9.7s4,11.8,8.4,13.1c8.8,2.5,17.6-4.8,17.6-4.8s-3.5-3.9-8.1-8.5c-4.6-4.6-4.7-10.7-4.7-10.7
				L54.6,67c0,0,0-2.1,0-5.9c0-3.8,7.9-9.1,7.9-14.1S61.4,30.3,57,34.5C49.7,41.6,40.1,41.6,40.1,41.6z"/>
			<path style="fill:#A7C539;" d="M77.9,41.4c0,0-4.3,5.1-3.9,9.5c0.3,4.4,0.7,8,3.9,7.8c3.2-0.2,5.7-2.9,5.7-2.9s2.6,0.7,2.4-0.2
				C85.3,52.3,82.2,44.9,77.9,41.4z"/>
			<path style="fill:#A7C539;" d="M86.6,58.8c0,0-6.6,4.1-8.2,5.3c-3.3,2.4-0.9,9.3-0.9,9.3l3.8,5c0,0,1.3,0.4,2.1,0.2
				C86.8,72.1,87.9,64.3,86.6,58.8z"/>
		</g>
		<g>
			<circle style="fill:#D1D3D4;" cx="54.7" cy="16.9" r="6.6"/>
			<path style="fill:#A7A9AC;" d="M50,16.9c0-3.3,2.5-6.1,5.6-6.5c-0.3-0.1-0.6-0.1-1-0.1c-3.6,0-6.6,3-6.6,6.6s3,6.6,6.6,6.6
				c0.3,0,0.7-0.1,1-0.1C52.5,22.9,50,20.2,50,16.9z"/>
		</g>
	</g>
</g>
</svg>
