<?xml version="1.0" encoding="utf-8"?>
<!-- Generator: Adobe Illustrator 18.1.0, SVG Export Plug-In . SVG Version: 6.00 Build 0)  -->
<svg version="1.1" id="Layer_1" xmlns="http://www.w3.org/2000/svg" xmlns:xlink="http://www.w3.org/1999/xlink" x="0px" y="0px"
	 viewBox="0 0 109.2 109.2" style="enable-background:new 0 0 109.2 109.2;" xml:space="preserve">
<g>
	<g>
		<circle style="fill:#A7C539;" cx="54.6" cy="54.6" r="54.6"/>
		<path style="fill:#85A640;" d="M54.6,2.3v104.6c28.4-0.6,52.3-23.7,52.3-52.3S83,2.9,54.6,2.3z"/>
	</g>
	<g>
		<path style="fill:#F5833C;" d="M49.5,30.5c-3.6-0.1-7.1,0.5-10.4,1.5c-2.1,0.7-1.6,3.6,0.5,3.7c0.1,0,0.2,0,0.3,0
			c16.8,1,30.2,14.8,30.6,31.5c0.1,3.9-0.5,7.7-1.7,11.2c-1.3,4,3.9,6.8,6.4,3.3c3.8-5.4,6.1-11.9,6.1-19.1
			C81.3,45.2,67,30.8,49.5,30.5z"/>
		<polygon style="fill:#F5833C;" points="51.7,53.2 35,52.3 35.3,18.4 55.2,19.5 		"/>
		<polygon style="fill:#D56230;" points="54.7,24.3 35.3,23.2 35.3,20 55,21.1 		"/>
		<polygon style="fill:#D56230;" points="51.9,51.6 35,50.7 35.1,47.5 52.3,48.5 		"/>
		<circle style="fill:#D56230;" cx="47.9" cy="34.1" r="1.7"/>
		<circle style="fill:none;stroke:#D56230;stroke-width:1.5545;stroke-miterlimit:10;" cx="47.9" cy="34.1" r="2.5"/>
		<polygon style="fill:#D56230;" points="84.4,84.9 32.1,84.9 32.1,75.9 84.4,80.3 		"/>
		<polygon style="fill:#D56230;" points="75.3,69.5 32.1,66.8 32.1,62.4 75.3,65.1 74.1,65.9 74.1,68.3 		"/>
		<circle style="fill:#D56230;" cx="76.2" cy="67.5" r="1.7"/>
		<circle style="fill:none;stroke:#D56230;stroke-width:1.5545;stroke-miterlimit:10;" cx="76.2" cy="67.5" r="2.5"/>
	</g>
</g>
</svg>
