<?xml version="1.0" encoding="utf-8"?>
<!-- Generator: Adobe Illustrator 18.1.0, SVG Export Plug-In . SVG Version: 6.00 Build 0)  -->
<svg version="1.1" id="Layer_1" xmlns="http://www.w3.org/2000/svg" xmlns:xlink="http://www.w3.org/1999/xlink" x="0px" y="0px"
	 viewBox="0 0 500 500" style="enable-background:new 0 0 500 500;" xml:space="preserve">
<g>
	<g>
		<g>
			<path style="fill:#19ABB5;" d="M251.9,165.1c0-14.4,0-28.7,0-43.1c0-1.1-2.3-2-2.3-0.6c0,14.4,0,28.7,0,43.1
				C249.6,165.7,251.9,166.6,251.9,165.1L251.9,165.1z"/>
		</g>
	</g>
	<g>
		<g>
			<path style="fill:#19ABB5;" d="M190.7,189.5c-10.2-10.2-20.3-20.3-30.5-30.5c-1-1-2.8-0.2-1.5,1c10.2,10.2,20.3,20.3,30.5,30.5
				C190.2,191.5,191.9,190.7,190.7,189.5L190.7,189.5z"/>
		</g>
	</g>
	<g>
		<g>
			<path style="fill:#19ABB5;" d="M164.3,249.8c-14.4,0-28.7,0-43.1,0c-1.6,0-0.4,2.1,0.8,2.1c14.4,0,28.7,0,43.1,0
				C166.6,251.9,165.4,249.8,164.3,249.8L164.3,249.8z"/>
		</g>
	</g>
	<g>
		<g>
			<path style="fill:#19ABB5;" d="M188.8,310.9c-10.2,10.2-20.3,20.3-30.5,30.5c-0.8,0.8,1.2,2.4,2.1,1.5
				c10.2-10.2,20.3-20.3,30.5-30.5C191.7,311.6,189.6,310.1,188.8,310.9L188.8,310.9z"/>
		</g>
	</g>
	<g>
		<g>
			<path style="fill:#19ABB5;" d="M249.5,336.7c0,14.4,0,28.7,0,43.1c0,1.1,2.3,2,2.3,0.6c0-14.4,0-28.7,0-43.1
				C251.8,336.1,249.5,335.2,249.5,336.7L249.5,336.7z"/>
		</g>
	</g>
	<g>
		<g>
			<path style="fill:#19ABB5;" d="M310.7,312.3c10.2,10.2,20.3,20.3,30.5,30.5c1,1,2.8,0.2,1.5-1c-10.2-10.2-20.3-20.3-30.5-30.5
				C311.3,310.3,309.5,311.1,310.7,312.3L310.7,312.3z"/>
		</g>
	</g>
	<g>
		<g>
			<path style="fill:#19ABB5;" d="M337.1,252c14.4,0,28.7,0,43.1,0c1.6,0,0.4-2.1-0.8-2.1c-14.4,0-28.7,0-43.1,0
				C334.8,249.9,336,252,337.1,252L337.1,252z"/>
		</g>
	</g>
	<g>
		<g>
			<path style="fill:#19ABB5;" d="M312.6,190.9c10.2-10.2,20.3-20.3,30.5-30.5c0.8-0.8-1.2-2.4-2.1-1.5
				c-10.2,10.2-20.3,20.3-30.5,30.5C309.7,190.2,311.8,191.7,312.6,190.9L312.6,190.9z"/>
		</g>
	</g>
</g>
</svg>
