<?xml version="1.0" encoding="utf-8"?>
<!-- Generator: Adobe Illustrator 18.1.0, SVG Export Plug-In . SVG Version: 6.00 Build 0)  -->
<svg version="1.1" id="Layer_1" xmlns="http://www.w3.org/2000/svg" xmlns:xlink="http://www.w3.org/1999/xlink" x="0px" y="0px"
	 viewBox="0 0 361.2 361.2" style="enable-background:new 0 0 361.2 361.2;" xml:space="preserve">
<g>
	<g>
		<circle style="fill:#FFD400;" cx="180.6" cy="180.6" r="180.6"/>
	</g>
	<g>
		<defs>
			<circle id="SVGID_1_" cx="180.6" cy="180.6" r="180.6"/>
		</defs>
		<clipPath id="SVGID_2_">
			<use xlink:href="#SVGID_1_"  style="overflow:visible;"/>
		</clipPath>
		<g style="clip-path:url(#SVGID_2_);">
			<rect x="105.9" y="193.9" style="fill:#705336;" width="157" height="84"/>
			<path style="fill:#808285;" d="M295.2,369.3H65.9v-77.1c0-11,7.2-20.6,17.7-23.7l95.6-28.4l98.1,28.5
				c10.6,3.1,17.9,12.8,17.9,23.8V369.3z"/>
			<rect x="151.9" y="252.9" style="fill:#7AC4D3;" width="55" height="117"/>
			
				<line style="fill:none;stroke:#19ABB5;stroke-width:2.6558;stroke-linecap:round;stroke-miterlimit:10;" x1="180.2" y1="278.4" x2="180.2" y2="369.5"/>
			<path style="fill:#19ABB5;" d="M180.4,275.5c0,6.3-7,11.4-15.6,11.4s-15.6-5.1-15.6-11.4c0-3.7-0.2-16.2,3.5-18.3
				c2.7-1.5,8.5,6.8,12.1,6.8C173.5,264,180.4,269.2,180.4,275.5z"/>
			<path style="fill:#19ABB5;" d="M180.2,275.5c0,6.3,7,11.4,15.6,11.4s15.6-5.1,15.6-11.4c0-3.7,0.2-16.2-3.5-18.3
				c-2.7-1.5-8.5,6.8-12.1,6.8C187.2,264,180.2,269.2,180.2,275.5z"/>
			<path style="fill:#E5C69E;" d="M208.9,245c0,24.4-12.4,32.8-27.7,32.8s-27.7-8.3-27.7-32.8s12.4-55.7,27.7-55.7
				S208.9,220.5,208.9,245z"/>
			<path style="fill:#EDCFA4;" d="M181.1,189.3c-0.4,0-1.1,0-1.1,0v88.3c0,0,0.8,0,1.1,0c15.3,0,27.7-8.3,27.7-32.8
				S196.4,189.3,181.1,189.3z"/>
			<path style="fill:#F4D6A6;" d="M262.9,149.9c0,39.4-36.8,103.9-82.3,103.9s-82.3-72.6-82.3-103.9C98.4,92.5,135.2,46,180.7,46
				S262.9,92.5,262.9,149.9z"/>
			<path style="fill:#EDCFA4;" d="M179.9,46c-45,0.2-82,46.6-82,103.9c0,38.7,37,103.7,82,103.9V46z"/>
			<g>
				<circle style="fill:#44372A;" cx="215.9" cy="161.3" r="7.6"/>
			</g>
			<g>
				<circle style="fill:#44372A;" cx="147.3" cy="161.3" r="7.6"/>
			</g>
			<g>
				<g>
					<path style="fill:#7C5C39;" d="M202.9,146.3c0,0,0.4-0.3,1.2-0.6c0.8-0.3,1.8-0.7,3.2-1.1c0.7-0.2,1.4-0.3,2.2-0.5
						c0.8-0.1,1.6-0.2,2.5-0.3c0.9,0,1.7,0,2.7,0.1c0.9,0.1,1.8,0.2,2.7,0.3c0.9,0.1,1.8,0.2,2.7,0.3c0.9,0.1,1.8,0.3,2.6,0.5
						c0.8,0.2,1.7,0.4,2.4,0.6c0.8,0.3,1.5,0.5,2.1,0.8c0.6,0.3,1.2,0.5,1.7,0.8c0.5,0.3,0.9,0.5,1.2,0.8c0.6,0.5,1,0.8,1,0.8
						c0.1,0.1,0.1,0.2,0,0.3c-0.1,0.1-0.1,0.1-0.2,0l0,0c0,0-0.4-0.2-1.1-0.5c-0.3-0.2-0.8-0.3-1.3-0.5c-0.5-0.2-1.1-0.3-1.7-0.5
						c-0.6-0.2-1.3-0.2-2.1-0.3c-0.7-0.1-1.5-0.1-2.4-0.2c-1.6,0-3.4-0.1-5.2,0c-1.8,0-3.5,0.4-5.2,0.5c-1.6,0.1-3.2,0-4.6-0.2
						c-1.3-0.2-2.5-0.3-3.3-0.5c-0.8-0.2-1.3-0.4-1.3-0.4c-0.1,0-0.2-0.2-0.1-0.3C202.8,146.3,202.9,146.3,202.9,146.3z"/>
				</g>
			</g>
			<g>
				<g>
					<path style="fill:#7C5C39;" d="M160.2,146.7c0,0-0.5,0.2-1.3,0.4c-0.8,0.2-2,0.4-3.3,0.5c-1.4,0.1-2.9,0.2-4.6,0.2
						c-1.6-0.1-3.4-0.4-5.2-0.5c-1.8-0.1-3.5-0.1-5.2,0c-0.8,0.1-1.6,0.1-2.4,0.2c-0.7,0.1-1.5,0.2-2.1,0.3
						c-0.6,0.1-1.2,0.3-1.7,0.5c-0.5,0.2-1,0.3-1.3,0.5c-0.7,0.3-1.1,0.5-1.1,0.5l0,0c-0.1,0-0.2,0-0.2-0.1c0-0.1,0-0.2,0-0.2
						c0,0,0.4-0.3,1-0.8c0.3-0.3,0.7-0.5,1.2-0.8c0.5-0.3,1.1-0.6,1.7-0.8c0.6-0.3,1.4-0.5,2.1-0.8c0.8-0.3,1.6-0.4,2.4-0.6
						c0.8-0.2,1.7-0.4,2.6-0.5c0.9-0.1,1.8-0.2,2.7-0.3c0.9-0.1,1.8-0.2,2.7-0.3c0.9-0.1,1.8-0.1,2.7-0.1c0.9,0,1.7,0.1,2.5,0.3
						c0.8,0.1,1.5,0.3,2.2,0.5c1.3,0.4,2.4,0.8,3.2,1.1c0.8,0.3,1.2,0.6,1.2,0.6c0.1,0.1,0.1,0.2,0.1,0.3
						C160.3,146.6,160.2,146.6,160.2,146.7z"/>
				</g>
			</g>
			<polygon style="fill:#727477;" points="158.9,369.9 137.8,369.9 125.9,254.5 153.5,246.6 			"/>
			<polygon style="fill:#727477;" points="202.6,369.9 223.7,369.9 235,254.8 208.9,246.8 			"/>
			<path style="fill:#EA2A2A;" d="M187.6,210.4c-2.4,0-4.7,0.4-6.6,1.1c-2-0.7-4.2-1.1-6.6-1.1c-4.1,0-20,3.3-20,3.3
				s11.8,16.2,26.4,16.2s26.4-16.2,26.4-16.2S191.9,210.4,187.6,210.4z"/>
			<g>
				<path style="fill:#EDD0A6;" d="M181.3,198.6c-4.7,0-9-2.1-11.9-5.8c-0.8-1-0.6-2.4,0.4-3.1c1-0.8,2.4-0.6,3.1,0.4
					c2,2.6,5.1,4.1,8.4,4.1c3.5,0,6.8-1.8,8.8-4.7c0.7-1,2.1-1.3,3.1-0.6c1,0.7,1.3,2.1,0.6,3.1
					C190.9,196.2,186.3,198.6,181.3,198.6z"/>
			</g>
			<path style="fill:#DBC09E;" d="M180.9,194.2c-4-0.1-6.1-1.5-8.1-4.1c-0.8-1-2.1-1.1-3.1-0.4c-1,0.8-1.2,2.1-0.4,3.1
				c2.8,3.6,6.6,5.7,11.6,5.8V194.2z"/>
			<path style="fill:#7C5C39;" d="M121.8,161.3c0-51,10.4-85.4,59.7-78.3c49.4-7.3,59.7,24.2,59.7,78.3c0,1.8,22.7,43.3,22.6,45.1
				c5.5-12.1,14.4-17.1,14.4-69.6c0-65.6-42.4-106.3-96.7-96.7c-54.2-9.6-96.7,29.3-96.7,96.7c0,43.6,4.5,40.3,10,52.5
				C94.8,187.5,121.8,172.9,121.8,161.3z"/>
			<path style="fill:#7C5C39;" d="M121.9,326.9c-10,0-38-24.9-38-77.1V134.7c0-5.9,5.1-31.9,10.9-31.9l10-10.6
				c5.9,0,17.1,4.8,17.1,10.6V326.9z"/>
			<path style="fill:#7C5C39;" d="M240.9,326.9c10,0,37-26.7,37-86.9V134.7c0-5.9-4.5-31.9-10.4-31.9l-9.8-10.6
				c-5.9,0-16.8,4.8-16.8,10.6V326.9z"/>
			<path style="fill:#BC2020;" d="M180.9,211.5C180.9,211.5,181,211.5,180.9,211.5c-2-0.7-4.2-1.1-6.6-1.1c-4.1,0-20,3.3-20,3.3
				s11.8,16.2,26.4,16.2c0.1,0,0.2,0,0.2,0V211.5z"/>
		</g>
	</g>
</g>
</svg>
